<?xml version="1.0" standalone="no"?><!DOCTYPE svg PUBLIC "-//W3C//DTD SVG 1.1//EN" "http://www.w3.org/Graphics/SVG/1.1/DTD/svg11.dtd"><svg t="1515325237746" class="icon" style="" viewBox="0 0 1024 1024" version="1.1" xmlns="http://www.w3.org/2000/svg" p-id="3569" xmlns:xlink="http://www.w3.org/1999/xlink" width="64" height="64"><defs><style type="text/css"></style></defs><path d="M928 520c0 51.2 41.6 94.4 94.4 94.4l0 228.8-672 0L350.4 816l-27.2 0 0 27.2L1.6 843.2 1.6 614.4c51.2 0 94.4-41.6 94.4-94.4s-41.6-94.4-94.4-94.4L1.6 198.4l321.6 0L323.2 224l27.2 0 0-27.2 672 0 0 228.8C971.2 425.6 928 468.8 928 520zM350.4 278.4l-27.2 0 0 80 27.2 0L350.4 278.4zM350.4 412.8l-27.2 0 0 80 27.2 0L350.4 412.8zM350.4 547.2l-27.2 0 0 80 27.2 0L350.4 547.2zM350.4 681.6l-27.2 0 0 80 27.2 0L350.4 681.6zM737.6 326.4l-81.6 161.6L576 326.4l-76.8 0 102.4 187.2-68.8 0 0 35.2 88 0 0 0 0 44.8-88 0 0 35.2L624 628.8l0 80 67.2 0 0-80 89.6 0 0-35.2-89.6 0 0-44.8 0 0 88 0 0-35.2-68.8 0 102.4-187.2L737.6 326.4z" p-id="3570" fill="#fd6262" data-spm-anchor-id="a313x.7781069.0.i33" class=""></path></svg>