<?xml version="1.0" standalone="no"?><!DOCTYPE svg PUBLIC "-//W3C//DTD SVG 1.1//EN" "http://www.w3.org/Graphics/SVG/1.1/DTD/svg11.dtd"><svg t="1515044673247" class="icon" style="" viewBox="0 0 1024 1024" version="1.1" xmlns="http://www.w3.org/2000/svg" p-id="1338" xmlns:xlink="http://www.w3.org/1999/xlink" width="200" height="200"><defs><style type="text/css"></style></defs><path d="M386.468087 309.395222l253.134871-0.713372c11.687436-1.359974 54.791268-51.349121 64.736908-104.140721 9.54911-49.907539-19.203492-65.74947-91.205619-65.74947-72.139889 0-57.220852 70.042751-71.727369 70.042751-8.455835 0-16.125387-53.762845-48.959829-76.586666-23.520437-16.32813-56.006572 25.626273-87.115847 25.950022-36.324812 0.323748-83.673701-4.276652-83.673701 49.145815C321.658268 251.614621 374.043614 309.395222 386.468087 309.395222L386.468087 309.395222zM376.052109 317.170175c-9.945641 0-17.996119 6.690376-17.996119 14.805834 0 8.196938 8.050478 14.805834 17.996119 14.805834L652.836353 346.781842c10.002818 0 17.997014-6.608895 17.997014-14.805834 0-8.11533-8.059176-14.805834-17.997014-14.805834L376.052109 317.170175 376.052109 317.170175zM667.941376 372.666884 363.692488 372.666884c-98.721675 58.18519-182.605921 171.607298-182.605921 320.827855 0 164.496599 156.688389 202.028784 335.600303 202.028784 178.864586 0 327.890202-39.330006 327.890202-203.972299C844.514012 553.345152 772.106528 433.832709 667.941376 372.666884L667.941376 372.666884zM578.971425 583.21546c12.513116 0 22.629905 9.49206 22.629905 21.219917s-10.115893 21.220684-22.629905 21.220684l-45.266717 0 0 21.253174 45.266717 0c12.513116 0 22.629905 9.459698 22.629905 21.219917 0 11.727857-10.115893 21.220684-22.629905 21.220684l-45.266717 0 0 44.626127c0 11.744485-10.140453 21.236546-22.645638 21.236546-12.489324 0-22.629905-9.49206-22.629905-21.236546l0-44.626127-45.258787 0c-12.497255 0-22.637836-9.49206-22.637836-21.220684 0-11.759323 10.140453-21.219917 22.637836-21.219917l45.258787 0 0-21.253174-45.258787 0c-12.497255 0-22.637836-9.49206-22.637836-21.220684 0-11.726961 10.140453-21.219917 22.637836-21.219917l45.258787 0 0-12.408611-63.482207-57.56916c-8.990129-8.132086-9.208605-21.609413-0.526491-30.032758 8.66638-8.423345 23.017738-8.649751 32.007867-0.48607l56.403103 51.187695 56.403103-51.187695c9.006885-8.164449 23.309892-7.904785 31.999936 0.48607 8.690044 8.423345 8.439078 21.868181-0.51856 30.032758l-67.013893 60.743712 0 9.233292 45.269403 0L578.971425 583.21546z" p-id="1339" data-spm-anchor-id="a313x.7781069.0.i1" class="selected" fill="#ffcf2d"></path></svg>