<?xml version="1.0" standalone="no"?><!DOCTYPE svg PUBLIC "-//W3C//DTD SVG 1.1//EN" "http://www.w3.org/Graphics/SVG/1.1/DTD/svg11.dtd"><svg t="1515118392372" class="icon" style="" viewBox="0 0 1024 1024" version="1.1" xmlns="http://www.w3.org/2000/svg" p-id="1227" xmlns:xlink="http://www.w3.org/1999/xlink" width="28" height="28"><defs><style type="text/css"></style></defs><path d="M165.36 121.1h513.26c41.75 0 47.89 28.31 47.89 28.31v206.28L404.8 702l-76.13 181.69H164.13c-47.89 0-45.1-36.84-45.1-36.84V154.32c8.93-36.84 46.33-33.22 46.33-33.22z m485 97.93c0-14.72-16.24-26.65-36.27-26.65h-383c-20 0-36.28 11.93-36.28 26.65v6.87c0 14.72 16.24 26.65 36.28 26.65h383c20 0 36.27-11.93 36.27-26.65V219z m0.15 130.77c0-14.72-16.24-26.65-36.28-26.65h-383c-20 0-36.27 11.93-36.27 26.65v6.87c0 14.72 16.24 26.65 36.27 26.65h383c20 0 36.27-11.93 36.27-26.65v-6.87z m-152.41 130c0-14.72-10.81-26.65-24.14-26.65H219.12c-13.33 0-24.14 11.93-24.14 26.65v6.87c0 14.72 10.81 26.65 24.14 26.65H474c13.33 0 24.14-11.93 24.14-26.65v-6.87zM503 883.69h186.68s38.07-1.23 36.84-62.62 0-185.41 0-185.41L503 883.69z" p-id="1228"></path><path d="M462.51 704.42l85.96 73.67L903.5 387.62l-81.21-68.76-359.78 385.56zM429.36 742.48L511.27 810S406 905.57 360.6 905.57c0 0-20.88-14.51 68.76-163.09z" p-id="1229"></path></svg>