<?xml version="1.0" standalone="no"?><!DOCTYPE svg PUBLIC "-//W3C//DTD SVG 1.1//EN" "http://www.w3.org/Graphics/SVG/1.1/DTD/svg11.dtd"><svg t="1515118686792" class="icon" style="" viewBox="0 0 1000 1000" version="1.1" xmlns="http://www.w3.org/2000/svg" p-id="3154" xmlns:xlink="http://www.w3.org/1999/xlink" width="28" height="28"><defs><style type="text/css"></style></defs><path d="M516.2491 428.0588c96.6714 0 175.0355-78.3609 175.0355-175.0283 0-96.6495-78.3641-175.0103-175.0355-175.0103-96.6534 0-175.0175 78.3609-175.0175 175.0103C341.2316 349.6989 419.5957 428.0588 516.2491 428.0588zM809.3215 695.6723v-35.115191899891876c0-109.3878-88.6645-198.0487-198.0388-198.0487H413.22577518120954c-109.3743 0-198.0388 88.6609-198.0388 198.0487v179.65119648878058c0 20.582 16.6884 37.2697 37.2713 37.2697h521.7766282877807c20.6009 0 37.2713-16.6877 37.2713-37.2697V701.1396273326684C811.5061 696.7176 810.7346 695.2536 809.3215 695.6723z" p-id="3155"></path></svg>