<?xml version="1.0" standalone="no"?><!DOCTYPE svg PUBLIC "-//W3C//DTD SVG 1.1//EN" "http://www.w3.org/Graphics/SVG/1.1/DTD/svg11.dtd"><svg t="1515118626098" class="icon" style="" viewBox="0 0 1024 1024" version="1.1" xmlns="http://www.w3.org/2000/svg" p-id="2603" id="mx_n_1515118626099" xmlns:xlink="http://www.w3.org/1999/xlink" width="28" height="28"><defs><style type="text/css"></style></defs><path d="M580.32 221.125c-0.297-7.09-2.8-13.345-7.088-18.943-7.983-10.186-18.765-13.344-31.275-13.283-146 0.118-292 0.06-437.942 0.06-2.501 0-4.944 0.118-7.386 0.297-16.38 1.132-29.665 14.355-30.916 30.737a98.315 98.315 0 0 0-0.357 8.399c0 156.188 0.18 312.375-0.237 468.622-0.12 25.255 16.142 41.04 40.148 39.909 18.763-0.955 37.707-0.18 56.53-0.18h6.015c9.828-59.746 56.531-99.776 106.447-103.35 74.341-5.42 117.35 33.359 136.112 103.112 0.06 0 0.596 0.18 1.133 0.18 44.914 0 89.828 0.118 134.741-0.18 5.125 0 10.664-1.25 15.19-3.572 13.94-6.91 19.124-18.943 19.124-34.194-0.18-157.259-0.12-314.518-0.12-471.776 0-1.907 0-3.874-0.118-5.838zM958.1 523.79c-3.574-23.888-13.879-44.916-27.876-64.217-12.51-17.213-25.437-34.19-38.422-51.048-16.56-21.681-33.238-43.306-50.335-64.572-10.365-12.925-24.364-18.228-40.983-18.167-49.084 0.178-98.227 0.06-147.43 0.12-4.17 0.059-8.519 0.357-12.51 1.428-16.262 4.35-25.375 17.276-25.375 35.682v336.558c0 2.266 0 4.53 0.239 6.792 1.726 16.976 17.392 31.036 33.655 29.725 4.824-29.545 18.405-54.684 41.162-74.4 23.05-19.895 50.096-29.605 80.475-29.605 50.216-0.12 108.533 35.977 119.97 104.659 7.09 0 14.296 0.059 21.444-0.06 6.494-0.118 13.224 0.418 19.479-0.952 16.679-3.575 26.864-17.098 26.864-35.027 0.061-56.175 0-112.405 0-168.518a39.49 39.49 0 0 0-0.357-8.398z m-239.82 7.504V394.11h6.136c24.065 0 48.25 0.298 72.376-0.12 8.577-0.178 14.892 3.158 19.477 9.473 25.317 34.667 50.514 69.456 75.294 104.541 4.11 5.897 6.255 13.223 9.233 19.955 0.416 0.834 0.06 2.026 0.06 3.336H718.28z" p-id="2604"></path><path d="M288.738 675.15c-43.904-0.119-79.346 34.968-79.405 78.87-0.06 43.72 35.324 79.044 79.225 79.044 43.841 0 79.404-35.502 79.283-79.166-0.06-43.424-35.323-78.57-79.103-78.747z m481.485 0c-43.723-0.417-79.642 34.906-79.882 78.57-0.238 43.602 35.146 79.047 79.107 79.344 43.546 0.238 78.987-34.67 79.403-78.332 0.537-43.721-34.488-79.166-78.628-79.581z" p-id="2605"></path></svg>