<?xml version="1.0" standalone="no"?><!DOCTYPE svg PUBLIC "-//W3C//DTD SVG 1.1//EN" "http://www.w3.org/Graphics/SVG/1.1/DTD/svg11.dtd"><svg t="1515118525347" class="icon" style="" viewBox="0 0 1024 1024" version="1.1" xmlns="http://www.w3.org/2000/svg" p-id="1227" xmlns:xlink="http://www.w3.org/1999/xlink" width="16" height="16"><defs><style type="text/css"></style></defs><path d="M869.501754 150.905263C776.084211 53.894737 646.736842 0 510.203509 0s-265.880702 53.894737-359.298246 150.905263c-197.614035 197.614035-197.614035 524.575439 0 722.189474 97.010526 97.010526 226.357895 150.905263 359.298246 150.905263s265.880702-53.894737 359.298245-150.905263c201.207018-201.207018 201.207018-524.575439 0-722.189474z m-53.894736 664.701755c-82.638596 82.638596-190.42807 125.754386-305.403509 125.754386S283.845614 898.245614 204.8 815.607018C35.929825 646.736842 35.929825 373.670175 204.8 204.8 287.438596 122.161404 395.22807 79.045614 510.203509 79.045614s226.357895 46.708772 305.403509 125.754386c168.870175 168.870175 168.870175 441.936842 0 610.807018z" p-id="1228" fill="#d81e06"></path><path d="M765.305263 283.845614l-344.926316 344.926316-165.277193-165.277193-57.487719 53.894737 168.870176 165.277193 53.894736 57.487719 53.894737-57.487719 348.519298-344.926316z" p-id="1229" fill="#d81e06"></path></svg>