<?xml version="1.0" standalone="no"?><!DOCTYPE svg PUBLIC "-//W3C//DTD SVG 1.1//EN" "http://www.w3.org/Graphics/SVG/1.1/DTD/svg11.dtd"><svg t="1515118463994" class="icon" style="" viewBox="0 0 1024 1024" version="1.1" xmlns="http://www.w3.org/2000/svg" p-id="1627" xmlns:xlink="http://www.w3.org/1999/xlink" width="16" height="16"><defs><style type="text/css"></style></defs><path d="M924.37449 336.435449c-22.583344-53.393048-54.907541-101.338013-96.073102-142.504598-41.165562-41.166585-89.10848-73.489758-142.503575-96.073102-55.29435-23.38664-114.01473-35.245735-174.484963-35.245735-60.513212 0-119.234615 11.858072-174.528965 35.245735-53.393048 22.583344-101.338013 54.907541-142.504598 96.073102-41.166585 41.166585-73.489758 89.110527-96.073102 142.503575-23.388686 55.295374-35.246759 114.01473-35.246759 174.555571 0 60.512189 11.858072 119.234615 35.246759 174.527942 22.583344 53.395094 54.906517 101.339036 96.073102 142.506644 41.166585 41.165562 89.11155 73.487711 142.504598 96.071056 55.295374 23.388686 114.01473 35.246759 174.528965 35.246759 60.470233 0 119.190613-11.858072 174.485987-35.246759 53.395094-22.582321 101.338013-54.905494 142.503575-96.073102 41.165562-41.165562 73.489758-89.109504 96.073102-142.504598 23.388686-55.293327 35.246759-114.015753 35.246759-174.527942C959.622272 450.450179 947.7642 391.730823 924.37449 336.435449zM511.32513 900.44294c-215.095893 0-389.465223-174.36933-389.465223-389.466246S296.229237 121.510448 511.32513 121.510448c215.095893 0 389.466246 174.36933 389.466246 389.466246S726.421023 900.44294 511.32513 900.44294z" p-id="1628"></path><path d="M696.291818 659.267065l-0.62831-0.627287 0 0L548.999171 511.975441 681.375084 379.598504l14.287401-14.287401 0.62831-0.62831c11.499915-11.499915 11.499915-30.146601 0-41.647539s-30.146601-11.499915-41.646516 0l-0.62831 0.62831-0.001023 0L507.351632 470.326878 365.345384 328.321654l0 0-5.287423-5.287423c-11.499915-11.499915-30.146601-11.499915-41.646516 0-11.499915 11.500938-11.499915 30.146601 0 41.647539l5.2864 5.287423 9.628288 9.628288 132.376936 132.376936L323.697845 653.980665l0.001023 0-5.287423 5.2864c-11.499915 11.501962-11.499915 30.147624 0 41.648562 11.499915 11.499915 30.146601 11.499915 41.647539-0.001023l5.2864-5.2864 9.629311-9.629311 132.375913-132.375913 132.376936 132.375913 14.287401 14.288424 0.627287 0.627287c11.499915 11.499915 30.147624 11.499915 41.647539 0S707.791733 670.768003 696.291818 659.267065z" p-id="1629"></path></svg>