<?xml version="1.0" standalone="no"?><!DOCTYPE svg PUBLIC "-//W3C//DTD SVG 1.1//EN" "http://www.w3.org/Graphics/SVG/1.1/DTD/svg11.dtd"><svg t="1515573781438" class="icon" style="" viewBox="0 0 1024 1024" version="1.1" xmlns="http://www.w3.org/2000/svg" p-id="1227" xmlns:xlink="http://www.w3.org/1999/xlink" width="32" height="32"><defs><style type="text/css"></style></defs><path d="M658.758603 398.057946c-16.338138-15.531316-30.99608-29.509399-44.03526-41.9322l-33.841458-31.319628c-8.895516-8.283232-14.203337-13.329963-16.015614-15.14224-16.598205-15.530293-35.264658-22.778377-56.03622-21.872239-20.740845 0.907162-38.535972 8.154223-53.386405 21.872239-2.362103 2.328315-8.155247 7.894156-17.342569 16.435407-9.189371 8.672309-20.610812 19.283856-34.264323 31.708705-13.622794 12.552834-28.762987 26.402931-45.362215 41.543123-16.598205 15.27125-33.22815 30.543523-49.825332 46.073815-39.732894 36.238373-83.929928 76.747372-132.558337 121.396964v346.327163c0 14.236102 5.047755 25.235702 15.108452 33.000848 10.094485 7.76617 23.747996 11.649767 40.929816 11.649767H407.42752c-0.12901-1.941287-0.226279-3.754587-0.226279-5.69485V799.776281c0-48.144112 38.89126-87.227862 86.840834-87.227862h32.160238c47.979266 0 86.838786 39.084775 86.838786 87.227862V952.103796c0 1.940263-0.064505 3.751516-0.19249 5.693827H788.179756c16.627898-0.647096 29.829875-5.951845 39.60286-16.177388 9.802678-10.094485 14.687635-21.741181 14.687635-34.814149V568.631097c-49.212024-45.813749-93.732606-87.227862-133.464476-124.113331-17.212536-15.529269-33.938727-30.931576-50.247172-46.45982z m297.56872 80.369878c-0.579519-14.237125-7.117027-27.438079-19.541875-39.344841l-22.259267-22.260291c-11.258643-11.3897-25.203961-24.848673-41.802166-40.638009-16.630969-15.789336-34.844865-33.518934-54.71336-53.189818-19.865423-19.671909-40.183403-39.344841-60.955989-59.404803-20.770538-19.930952-41.220599-39.732894-61.376806-59.275793-20.189995-19.671909-38.405939-37.401507-54.71336-53.189819-16.305374-15.790359-30.122706-29.119299-41.381349-40.25098-11.259667-10.9996-18.700242-17.988641-22.258243-20.9661-18.378742-17.858608-40.605244-26.66095-66.715344-26.271873-26.077335 0.258019-50.40997 11.3897-72.929304 33.390948-2.975411 2.976435-13.524501 12.941911-31.610412 30.025437a21779.733342 21779.733342 0 0 0-64.935831 61.087046c-25.203961 23.812501-52.512007 49.438303-81.857584 76.875358-29.346601 27.308045-56.783656 52.932824-82.311165 76.745325-25.496792 23.813525-47.432512 44.390548-65.810229 61.604108-18.410482 17.341546-29.379366 27.696098-32.937367 31.319628-9.480154 8.929304-14.526885 20.9661-15.108452 36.10834-0.616379 15.272274 5.013966 28.212136 16.888988 38.824708 10.676052 9.576399 23.424448 14.107092 38.275905 13.459996 14.818692-0.646072 26.66095-4.529669 35.591278-11.647719 2.944694-2.329339 11.680484-10.224519 26.238085-23.683491 14.527909-13.330987 31.869455-29.507351 52.026685-48.662198 20.188971-19.025837 42.127762-39.601837 65.842994-61.603085 23.747996-22.001248 46.26733-43.097381 67.622506-63.416385 21.353128-20.188971 40.183403-37.920617 56.490825-53.061833 16.306398-15.27125 27.436031-25.494745 33.35716-30.801542 17.795127-16.177388 35.881037-24.46062 54.29152-25.107716 18.377718-0.517062 37.078983 7.765146 56.038267 25.107716 4.139568 3.494521 13.944294 12.812901 29.37527 27.695074 15.401283 14.884221 33.776953 32.3558 55.13213 52.674804 21.354152 20.189995 44.03526 41.801142 68.076087 64.710577 24.006015 22.906362 46.558113 44.390548 67.622506 64.322523 21.030605 19.928904 39.147232 37.012431 54.257731 51.378566 15.14224 14.236102 24.168813 22.51831 27.146272 24.977683 8.89654 7.765146 20.739821 11.905739 35.591278 12.424848 14.819716 0.648119 27.857872-4.140592 39.149279-14.236102 10.062745-9.579471 14.819716-21.48521 14.203337-35.720287z" fill="#272536" p-id="1228"></path></svg>