<?xml version="1.0" standalone="no"?><!DOCTYPE svg PUBLIC "-//W3C//DTD SVG 1.1//EN" "http://www.w3.org/Graphics/SVG/1.1/DTD/svg11.dtd"><svg t="1515324796153" class="icon" style="" viewBox="0 0 1024 1024" version="1.1" xmlns="http://www.w3.org/2000/svg" p-id="1801" xmlns:xlink="http://www.w3.org/1999/xlink" width="16" height="16"><defs><style type="text/css"></style></defs><path d="M626.85184 26.54208 626.85184 277.83168 880.8448 277.83168 626.85184 23.87968M607.72352 314.81856C597.89312 314.81856 589.86496 306.7904 589.86496 296.96L589.86496 15.72864 140.00128 15.72864C130.62144 15.72864 123.04384 23.3472 123.04384 32.72704L123.04384 981.68832C123.04384 991.06816 130.62144 998.64576 140.00128 998.64576L871.99744 998.64576C881.37728 998.64576 888.99584 991.06816 888.99584 981.68832L888.99584 314.65472 607.72352 314.81856 607.72352 314.81856ZM314.53184 253.46048 461.98784 253.46048C470.17984 253.46048 478.37184 261.65248 478.37184 269.84448 478.37184 278.03648 470.17984 286.22848 461.98784 286.22848L314.53184 286.22848C306.33984 286.22848 298.14784 278.03648 298.14784 269.84448 298.14784 261.65248 306.33984 253.46048 314.53184 253.46048L314.53184 253.46048ZM314.53184 491.02848 691.36384 491.02848C699.55584 491.02848 707.74784 499.22048 707.74784 507.41248 707.74784 515.60448 699.55584 523.79648 691.36384 523.79648L314.53184 523.79648C306.33984 523.79648 298.14784 515.60448 298.14784 507.41248 298.14784 499.22048 306.33984 491.02848 314.53184 491.02848L314.53184 491.02848ZM707.74784 744.98048C707.74784 753.17248 699.55584 761.36448 691.36384 761.36448L314.53184 761.36448C306.33984 761.36448 298.14784 753.17248 298.14784 744.98048 298.14784 736.78848 306.33984 728.59648 314.53184 728.59648L691.36384 728.59648C703.65184 728.59648 711.84384 736.78848 707.74784 744.98048L707.74784 744.98048Z" p-id="1802" fill="#ffcf2d"></path></svg>