<?xml version="1.0" standalone="no"?><!DOCTYPE svg PUBLIC "-//W3C//DTD SVG 1.1//EN" "http://www.w3.org/Graphics/SVG/1.1/DTD/svg11.dtd"><svg t="1515118660562" class="icon" style="" viewBox="0 0 1024 1024" version="1.1" xmlns="http://www.w3.org/2000/svg" p-id="2939" xmlns:xlink="http://www.w3.org/1999/xlink" width="28" height="28"><defs><style type="text/css"></style></defs><path d="M775.527952 616.313787c-78.099752-1.227967-144.488789 49.040926-167.662581 119.090329-6.852058 20.713764-31.68463 29.087479-50.468438 17.987676-112.823602-66.669422-206.723202-161.698752-272.694729-274.861068-0.329505-0.565888 0.088004-1.294482 0.74292-1.294482l0 0c88.644923 0 170.397878-54.783721 197.87979-139.061173 47.083341-144.389528-59.693544-278.104949-197.290365-278.104949-37.894052 0-73.351612 10.080589-103.94335 27.810393-58.751079 34.06791-99.42443 95.252411-104.291275 166.518524-0.347924 4.519943-0.347924 9.386788-0.347924 14.254655 0 7.299243 0.347924 14.252609 1.043772 21.205974 11.470239 374.060371 317.392744 674.072259 694.234461 674.072259 4.519943 0 8.69094 0 13.210883-0.347924 65.704444-5.215792 121.325229-46.584991 146.356322-104.291275 9.467629-22.215978 14.740726-46.724161 14.216793-72.719208C944.667164 695.050036 867.056552 617.752556 775.527952 616.313787z" p-id="2940"></path></svg>