<?xml version="1.0" standalone="no"?><!DOCTYPE svg PUBLIC "-//W3C//DTD SVG 1.1//EN" "http://www.w3.org/Graphics/SVG/1.1/DTD/svg11.dtd"><svg t="1515399602648" class="icon" style="" viewBox="0 0 1024 1024" version="1.1" xmlns="http://www.w3.org/2000/svg" p-id="4951" data-spm-anchor-id="a313x.7781069.0.i2" xmlns:xlink="http://www.w3.org/1999/xlink" width="32" height="32"><defs><style type="text/css"></style></defs><path d="M510.54537 66.716494c-245.106394 0-443.808922 198.699458-443.808922 443.813015 0 245.090021 198.701504 443.803805 443.808922 443.803805s443.808922-198.713784 443.808922-443.803805C954.354292 265.414929 755.651764 66.716494 510.54537 66.716494zM650.07931 629.805056c-4.783956 4.40738-11.54801 5.64865-17.801435 3.25923-6.239098-2.390443-10.078543-7.68196-10.078543-13.904685l0-94.940302c-151.833057 0-285.073664 77.871555-361.03573 195.157795-5.433756-6.734378-10.29446-13.935384-14.582113-21.524223 52.153824-193.031365 200.286606-332.545862 375.617843-332.545862l0-94.948489c0-6.229888 3.839445-11.514241 10.078543-13.903661 6.253424-2.382257 13.018501-1.140986 17.801435 3.26537L839.344908 434.120258c3.187599 2.933819 4.782933 6.486738 4.782933 10.630105 0 4.174066-1.595334 7.712659-4.782933 10.661827L650.07931 629.805056z" p-id="4952" data-spm-anchor-id="a313x.7781069.0.i0" class="" fill="#ffcf2d"></path></svg>