<?xml version="1.0" standalone="no"?><!DOCTYPE svg PUBLIC "-//W3C//DTD SVG 1.1//EN" "http://www.w3.org/Graphics/SVG/1.1/DTD/svg11.dtd"><svg t="1515398072829" class="icon" style="" viewBox="0 0 1024 1024" version="1.1" xmlns="http://www.w3.org/2000/svg" p-id="1227" xmlns:xlink="http://www.w3.org/1999/xlink" width="32" height="32"><defs><style type="text/css"></style></defs><path d="M958.216761 422.658206l0.49221 0-73.522504-289.982464c-10.048867-39.630602-45.716204-67.385736-86.60138-67.385736L225.414913 65.290005c-40.885176 0-76.55456 27.754111-86.60138 67.385736L65.290005 422.658206l0.49221 0c-0.233314 4.0175-0.49221 8.027837-0.49221 12.119015 0 48.854685 17.022699 92.657306 43.972491 123.128295l0 311.461661c0 49.342802 39.998993 89.341794 89.341794 89.341794L824.696792 958.708971c49.341778 0 89.341794-39.998993 89.341794-89.341794L914.038586 558.695508c27.358091-30.498618 44.671409-74.642001 44.671409-123.918287C958.708971 430.686043 958.450075 426.675706 958.216761 422.658206zM182.113711 143.653771c5.028527-19.837814 22.836101-33.692357 43.301202-33.692357l573.170175 0c20.465101 0 38.270629 13.854543 43.301202 33.692357l59.413158 234.333026L122.700553 377.986797 182.113711 143.653771zM913.571958 422.658206c0.299829 3.947915 0.458441 7.941879 0.460488 11.977799l0 0.283456c-0.060375 66.023716-40.943504 121.773438-89.336678 121.773438-25.221428 0-49.563836-15.187911-66.780963-41.668005l-37.449937-57.59065-37.449937 57.588603c-17.220197 26.481118-41.561581 41.669028-66.783009 41.669028-25.224498 0-49.564859-15.186887-66.783009-41.665958l-37.449937-57.595766-37.45096 57.595766c-17.21815 26.480094-41.558511 41.665958-66.780963 41.665958-25.221428 0-49.561789-15.187911-66.783009-41.669028l-37.449937-57.588603-37.448914 57.59065c-17.219173 26.480094-41.561581 41.668005-66.783009 41.668005-48.427966 0-89.341794-55.830563-89.341794-121.915677 0-4.082992 0.162706-8.125051 0.466628-12.119015L913.571958 422.658206zM824.696792 914.038586 198.605314 914.038586c-24.633027 0-44.671409-20.038382-44.671409-44.671409L153.933905 591.364559c14.189164 6.355755 29.41903 9.999748 45.369304 9.999748 42.125423 0 79.665411-24.206308 104.232946-61.986773 24.568559 37.781488 62.1065 61.986773 104.230899 61.986773 42.125423 0 79.665411-24.204262 104.232946-61.986773 24.567535 37.782511 62.1065 61.986773 104.232946 61.986773 42.1244 0 79.664388-24.206308 104.232946-61.986773 24.567535 37.781488 62.105476 61.986773 104.230899 61.986773 15.688307 0 30.679743-3.524267 44.671409-9.6815l0 277.685393C869.367177 894.000204 849.327772 914.038586 824.696792 914.038586z" p-id="1228"></path><path d="M176.971597 802.36825l670.063969 0 0 44.671409-670.063969 0 0-44.671409Z" p-id="1229"></path></svg>