<?xml version="1.0" standalone="no"?><!DOCTYPE svg PUBLIC "-//W3C//DTD SVG 1.1//EN" "http://www.w3.org/Graphics/SVG/1.1/DTD/svg11.dtd"><svg t="1515137901751" class="icon" style="" viewBox="0 0 1024 1024" version="1.1" xmlns="http://www.w3.org/2000/svg" p-id="3415" xmlns:xlink="http://www.w3.org/1999/xlink" width="16" height="16"><defs><style type="text/css"></style></defs><path d="M512.240477 53.360302c-253.210979 0-458.495412 205.215872-458.495412 458.430944 0 253.208932 205.285456 458.459596 458.495412 458.459596 253.179256 0 458.429921-205.250664 458.429921-458.459596C970.670397 258.576173 765.419733 53.360302 512.240477 53.360302L512.240477 53.360302zM741.528604 562.387597 498.099409 562.387597c-5.148253 0-10.090822-1.025353-14.623046-2.948145-13.45443-5.698792-22.935362-19.056008-22.935362-34.604122L460.541001 281.405111c0-20.764929 16.821107-37.58706 37.559431-37.58706 20.806885 0 37.627992 16.822131 37.627992 37.58706l0 205.803249 205.801203 0c20.773116 0 37.58706 16.821107 37.58706 37.5932C779.115664 545.56649 762.29558 562.387597 741.528604 562.387597L741.528604 562.387597zM741.528604 562.387597" p-id="3416"></path></svg>