<?xml version="1.0" standalone="no"?><!DOCTYPE svg PUBLIC "-//W3C//DTD SVG 1.1//EN" "http://www.w3.org/Graphics/SVG/1.1/DTD/svg11.dtd"><svg t="1515044956516" class="icon" style="" viewBox="0 0 1024 1024" version="1.1" xmlns="http://www.w3.org/2000/svg" p-id="2516" data-spm-anchor-id="a313x.7781069.0.i13" xmlns:xlink="http://www.w3.org/1999/xlink" width="200" height="200"><defs><style type="text/css"></style></defs><path d="M452.674 517.393c0 128.726 116.634 118.652 116.634 118.652h422.692v-248.090h-412.132s-127.194-10.010-127.194 129.438zM625.258 506.607c0 0 0 0 0 0 0 23.829-19.317 43.146-43.146 43.146-23.829 0-43.146-19.317-43.146-43.146 0 0 0 0 0 0 0-23.829 19.317-43.146 43.146-43.146 23.829 0 43.146 19.317 43.146 43.146z" p-id="2517" data-spm-anchor-id="a313x.7781069.0.i12" class="" fill="#bdeaff"></path><path d="M927.281 32h-830.562c-35.743 0-64.719 28.975-64.719 64.719v830.562c0 35.743 28.975 64.719 64.719 64.719h830.562c35.735 0 64.719-28.994 64.719-64.719v-258.877h-457.715s-113.97-1.693-113.97-151.012c0-161.766 125.372-161.797 125.372-161.797h446.314v-258.877c0-35.743-28.975-64.719-64.719-64.719 0 0 0 0 0 0z" p-id="2518" data-spm-anchor-id="a313x.7781069.0.i10" class="" fill="#04a6fd"></path></svg>